<svg width="15" height="16" viewBox="0 0 15 16" fill="none" xmlns="http://www.w3.org/2000/svg">
<path d="M0.999756 3.6665H2.4442H13.9998" stroke="#AEC2EA" stroke-linecap="round" stroke-linejoin="round"/>
<path d="M4.56717 3.8V2.4C4.56717 2.0287 4.72164 1.6726 4.9966 1.41005C5.27156 1.1475 5.64448 1 6.03333 1H8.96566C9.35452 1 9.72744 1.1475 10.0024 1.41005C10.2774 1.6726 10.4318 2.0287 10.4318 2.4V3.8M12.6311 3.8V13.6C12.6311 13.9713 12.4766 14.3274 12.2016 14.5899C11.9267 14.8525 11.5538 15 11.1649 15H3.83409C3.44523 15 3.07231 14.8525 2.79735 14.5899C2.52239 14.3274 2.36792 13.9713 2.36792 13.6V3.8H12.6311Z" stroke="#AEC2EA" stroke-linecap="round" stroke-linejoin="round"/>
<path d="M5.78906 7V11.6667" stroke="#AEC2EA" stroke-linecap="round" stroke-linejoin="round"/>
<path d="M9.21021 7V11.6667" stroke="#AEC2EA" stroke-linecap="round" stroke-linejoin="round"/>
</svg>
